<?xml version="1.0" encoding="UTF-8"?>
<svg id="Layer_2" data-name="Layer 2" xmlns="http://www.w3.org/2000/svg" xmlns:xlink="http://www.w3.org/1999/xlink" viewBox="0 0 20.28 28.64">
  <defs>
    <style>
      .cls-1 {
        fill: url(#linear-gradient);
      }

      .cls-1, .cls-2 {
        stroke-width: 0px;
      }
    </style>
    <linearGradient id="linear-gradient" x1="-59.14" y1="14.32" x2="-38.86" y2="14.32" gradientTransform="translate(59.14)" gradientUnits="userSpaceOnUse">
      <stop offset="0" stop-color="#60a5fa"/>
      <stop offset="1" stop-color="#c084fc"/>
    </linearGradient>
  </defs>
  <g id="Layer_1-2" data-name="Layer 1">
    <g>
      <g>
        <polygon class="cls-2" points="0 0 0 5.05 3.77 5.05 3.77 3.8 8.38 3.77 8.38 12.76 3.8 12.76 3.8 10.04 6.9 10.06 6.91 6.49 0 6.51 0 16.31 16.72 16.32 16.72 19.43 10.26 24.04 3.76 19.21 3.78 17.77 0 17.77 0 21.12 10.26 28.64 20.28 21.32 20.28 12.76 11.92 12.76 11.92 3.55 16.73 3.58 16.73 5.02 20.28 5.02 20.28 0 0 0"/>
        <polygon class="cls-2" points="20.28 6.5 20.28 11.3 16.73 11.3 16.73 10.05 13.39 10.05 13.39 6.5 20.28 6.5"/>
        <polygon class="cls-2" points="8.38 17.77 8.38 20.91 10.26 22.17 11.93 20.9 11.93 17.77 8.38 17.77"/>
      </g>
      <g>
        <polygon class="cls-1" points="0 0 0 5.05 3.77 5.05 3.77 3.8 8.38 3.77 8.38 12.76 3.8 12.76 3.8 10.04 6.9 10.06 6.91 6.49 0 6.51 0 16.31 16.72 16.32 16.72 19.43 10.26 24.04 3.76 19.21 3.78 17.77 0 17.77 0 21.12 10.26 28.64 20.28 21.32 20.28 12.76 11.92 12.76 11.92 3.55 16.73 3.58 16.73 5.02 20.28 5.02 20.28 0 0 0"/>
        <polygon class="cls-1" points="20.28 6.5 20.28 11.3 16.73 11.3 16.73 10.05 13.39 10.05 13.39 6.5 20.28 6.5"/>
        <polygon class="cls-1" points="8.38 17.77 8.38 20.91 10.26 22.17 11.93 20.9 11.93 17.77 8.38 17.77"/>
      </g>
    </g>
  </g>
</svg>